<?xml version="1.0" encoding="UTF-8"?>
<svg version="1.1" xmlns="http://www.w3.org/2000/svg" width="84" height="84">
<path d="M0 0 C3.80323152 1.40554208 4.79161927 2.66390205 6.9375 6.125 C8.60267859 10.60670923 7.87208127 14.67916958 6 19 C2.75724517 22.24275483 0.31245494 23.87380241 -4.25 24.3125 C-8.73703832 23.93858014 -10.61031378 22.92745628 -14 20 C-16.89045216 15.89742275 -17.47632849 12.73124687 -16.65234375 7.8984375 C-13.93325538 -0.01459811 -7.11614125 -0.65364902 0 0 Z " fill="#000000" transform="translate(47,30)"/>
<path d="M0 0 C2.27605184 2.12431505 2.90218604 3.44106306 3.4375 6.5 C2.84836233 9.86650098 1.73925021 11.00108769 -1 13 C-3.75 13.25 -3.75 13.25 -6 13 C-6.268125 13.7425 -6.53625 14.485 -6.8125 15.25 C-7.94229421 17.86636554 -9.20893202 19.80187111 -11 22 C-12.32 21.67 -13.64 21.34 -15 21 C-13.17334168 16.3028786 -13.17334168 16.3028786 -11.91796875 14.109375 C-10.84505492 11.64395599 -10.94655248 10.15496887 -11.1875 7.5 C-11.26443191 3.91378942 -11.2437177 3.30106304 -8.875 0.375 C-5.30457959 -1.33259237 -3.71886648 -1.29351877 0 0 Z " fill="#000000" transform="translate(63,8)"/>
<path d="M0 0 C0.33 1.32 0.66 2.64 1 4 C-5.625 7 -5.625 7 -9 7 C-9.2475 7.94875 -9.495 8.8975 -9.75 9.875 C-11 13 -11 13 -12.8125 14.4375 C-15.61287543 15.15759654 -17.26281819 14.91239394 -20 14 C-21.8125 12.875 -21.8125 12.875 -23 11 C-23.36528977 7.5906288 -23.6140629 5.11976176 -21.9375 2.0625 C-18.29346035 0.06415567 -14.36056889 0.66815393 -10.4375 1.625 C-6.55075362 2.22296098 -3.78781542 0 0 0 Z " fill="#000000" transform="translate(29,44)"/>
<path d="M0 0 C0.33 2.64 0.66 5.28 1 8 C2.175625 8.1546875 2.175625 8.1546875 3.375 8.3125 C6 9 6 9 8 12 C7.86714936 15.71981784 7.75057131 18.110434 5.3125 21 C2.12832007 22.37694267 0.29075199 21.980224 -3 21 C-4.875 19.8125 -4.875 19.8125 -6 18 C-6.42478586 13.92205575 -6.31282587 12.46923881 -4 9 C-3.75944532 6.94290404 -3.75944532 6.94290404 -3.875 4.8125 C-3.91625 3.554375 -3.9575 2.29625 -4 1 C-2 0 -2 0 0 0 Z " fill="#000000" transform="translate(48,55)"/>
<path d="M0 0 C1.9375 1.0625 1.9375 1.0625 3 3 C3.36248449 6.38318857 3.58433618 8.86784865 2 11.9375 C-1.35441952 13.71953537 -4.23779845 13.29858742 -8 13 C-8.66 12.34 -9.32 11.68 -10 11 C-10 10.01 -10 9.02 -10 8 C-12.97 7.67 -15.94 7.34 -19 7 C-18.67 5.68 -18.34 4.36 -18 3 C-15.36 3.33 -12.72 3.66 -10 4 C-9.67 3.01 -9.34 2.02 -9 1 C-5.95016004 -0.52491998 -3.3576631 -0.23562548 0 0 Z " fill="#000000" transform="translate(75,38)"/>
<path d="M0 0 C2.85823855 4.28735783 3.80748725 9.0311969 5 14 C3.125 14.625 3.125 14.625 1 15 C0.34 14.34 -0.32 13.68 -1 13 C-3.28876507 12.42353865 -5.57889902 12.04930747 -7.90625 11.66015625 C-10 11 -10 11 -12 8 C-11.9375 4.5 -11.9375 4.5 -11 1 C-7.14468237 -2.63501376 -4.61250986 -2.25500482 0 0 Z " fill="#000000" transform="translate(28,18)"/>
</svg>
